<?xml version="1.0" encoding="UTF-8" standalone="no"?>
<svg xmlns="http://www.w3.org/2000/svg" xmlns:xlink="http://www.w3.org/1999/xlink" viewBox="-10 -5 146 51">
  <path id="ankylosaurus" d="M74.450649 48.701353c-1.508551-.185421-2.630528.346566-3.509033-.187641-1.529992-.930367-2.321503-3.431168-3.130457-6.643817-1.23979-4.92365-2.54237-5.392311-5.686196-2.045862-2.631172 2.800754-2.746129 4.51723-.424314 6.335627 1.544881 1.209919 1.222552 1.340051-2.75 1.110243-2.097024-.121311-3.231792.116249-3.87986-.320011-.627204-.422215-.79854-1.4986-.945096-2.778744-.178726-1.561139.306473-3.586139 1.07822-4.5 1.483072-1.756176 5.746736-8.966769 5.746736-9.718726 0-1.054531-21.078367-.319489-26.039896.90806-3.00306.742994-8.1601 1.926025-11.4601 2.628957-3.3.702932-8.539961 1.895028-11.644351 2.649101-3.1043903.754073-6.7617903 1.371042-8.1275503 1.371042-2.95236997 0-3.12414097-.01616-3.62055697-1.184955-.244474-.575604.330008-1.297382.818108-1.688337.75065597-.601256 1.86651297-.467271 2.80859297-.66086 1.931018-.396805 3.902066-.588994 5.824547-1.025284 1.7997313-.408433 3.4293733-1.027592 5.3328203-1.487846 1.224781-.296153 2.65941-.269917 4.60839-.992925 1.238985-.459623 2.479449-.956248 3.58512-1.428679 1.839252-.785874 3.305516-1.504798 3.77153-1.875078.843155-.669944 2.42184-1.123586 3.879285-1.978297 1.19918-.703252 2.257553-1.824847 3.264065-2.293198.656257-.30537 1.363276-1.282898 2.805666-2.230727.820844-.539395 2.125714-.88477 3.179473-1.552753.903747-.57289 1.656694-1.643583 2.721641-2.326793.900957-.578003 1.65339-1.375159 2.441351-2.078373 1.072257-.956933 1.90801-2.262511 2.801157-3.13286 1.291163-1.258205 2.865586-1.65642 4.108919-2.445941 1.435153-.911326 2.519818-2.162727 3.693494-2.909955 1.774909-1.130005 2.973559-2.604195 4.622232-3.047284 1.719335-.46208 4.092345-1.065271 4.828912-1.673758C65.835576.93220702 68.45322.19145192 71.33695.01059232c1.849406-.1159897 3.33758.7578327 5.21098.8058977 2.799247.071819 5.240761-.4884888 6.175446-.035842 1.1.53270498 3.756816.44660698 5.681816.69756098 3.94427.514196 3.26517.359743 5.6152 1.242506.91708.34449 2.12707.534794 3.10793 1.008181 1.24048.598689 2.18409 1.952735 3.443638 2.283941 1.28347.337499 2.31988.845968 3.37868 2.012926 0 .833898 1.575 2.267243 3.5 3.185212 1.925.917968 3.5 1.959329 3.5 2.314135 0 .354806 1.70232 2.544821 3.78293 4.866701 2.43523 2.717614 4.32589 4.013244 5.307 3.636759 1.14589-.439719 1.94416.747864 3.21707 4.785979 1.91129 6.063317 2.11317 9.502053.68659 11.695035-.83949 1.290495-1.67544 1.115907-5.98521-1.25-5.92987-3.255292-8.28111-1.176664-8.28111 1.151071 0 2.124681 4.65975 8.37711 7.45468 9.264186 2.87518.912549-1.53796.380197-5.34701.380197-2.10176 0-3.76856-2.068918-5.14666-4.674588-1.46663-2.773054-2.59421-6.166089-3.15806-8.733268-.68576-3.122242-.94586-3.304471-3.879158-2.71781-3.6902.738039-5.70036 2.626404-8.52893 8.012144-2.13195 4.05934-1.55889 6.568068 1.50032 6.568068.75765 0 1.37755.45 1.37755 1 0 .716248-2.23067.580004-4.41285.507088-1.82189-.06088-3.52736.06009-4.652884-.542268-2.447391-1.309802-2.43606-3.587067.05308-10.669124 1.093038-3.109888 1.817654-5.824029 1.610264-6.031423-.654394-.654397-10.430454-.485611-11.53852.199211-.582495.360003-1.059083 3.295377-1.059083 6.523055 0 5.374567.260992 6.072762 3.100858 8.295291 3.377578 2.643352 2.571124 3.545644-2.600858 2.909939z"/>
</svg>